<?xml version="1.0" encoding="UTF-8" standalone="no"?>
<!-- Created with Inkscape (http://www.inkscape.org/) -->

<svg
   xmlns:dc="http://purl.org/dc/elements/1.1/"
   xmlns:cc="http://creativecommons.org/ns#"
   xmlns:rdf="http://www.w3.org/1999/02/22-rdf-syntax-ns#"
   xmlns:svg="http://www.w3.org/2000/svg"
   xmlns="http://www.w3.org/2000/svg"
   xmlns:sodipodi="http://sodipodi.sourceforge.net/DTD/sodipodi-0.dtd"
   xmlns:inkscape="http://www.inkscape.org/namespaces/inkscape"
   width="200mm"
   height="200mm"
   viewBox="0 0 200 200"
   version="1.1"
   id="svg876"
   inkscape:version="0.92.4 (5da689c313, 2019-01-14)"
   sodipodi:docname="logo2.svg">
  <defs
     id="defs870">
    <marker
       inkscape:stockid="Club"
       orient="auto"
       refY="0.0"
       refX="0.0"
       id="marker7313"
       style="overflow:visible"
       inkscape:isstock="true">
      <path
         id="path7311"
         d="M -1.5971367,-7.0977635 C -3.4863874,-7.0977635 -5.0235187,-5.5606321 -5.0235187,-3.6713813 C -5.0235187,-3.0147015 -4.7851656,-2.4444556 -4.4641095,-1.9232271 C -4.5028609,-1.8911157 -4.5437814,-1.8647646 -4.5806531,-1.8299921 C -5.2030765,-2.6849849 -6.1700514,-3.2751330 -7.3077730,-3.2751330 C -9.1970245,-3.2751331 -10.734155,-1.7380016 -10.734155,0.15124914 C -10.734155,2.0404999 -9.1970245,3.5776313 -7.3077730,3.5776313 C -6.3143268,3.5776313 -5.4391540,3.1355702 -4.8137404,2.4588126 C -4.9384274,2.8137041 -5.0235187,3.1803000 -5.0235187,3.5776313 C -5.0235187,5.4668819 -3.4863874,7.0040135 -1.5971367,7.0040135 C 0.29211394,7.0040135 1.8292454,5.4668819 1.8292454,3.5776313 C 1.8292454,2.7842354 1.5136868,2.0838028 1.0600576,1.5031550 C 2.4152718,1.7663868 3.7718375,2.2973711 4.7661444,3.8340272 C 4.0279463,3.0958289 3.5540908,1.7534117 3.5540908,-0.058529361 L 2.9247554,-0.10514681 L 3.5074733,-0.12845553 C 3.5074733,-1.9403966 3.9580199,-3.2828138 4.6962183,-4.0210121 C 3.7371277,-2.5387813 2.4390549,-1.9946496 1.1299838,-1.7134486 C 1.5341802,-2.2753578 1.8292454,-2.9268556 1.8292454,-3.6713813 C 1.8292454,-5.5606319 0.29211394,-7.0977635 -1.5971367,-7.0977635 z "
         style="fill-rule:evenodd;stroke:#000000;stroke-width:0.74587913pt;stroke-opacity:1;fill:#ff6769;fill-opacity:1"
         transform="scale(0.6)" />
    </marker>
    <marker
       inkscape:stockid="RazorWire"
       id="marker7009"
       refX="0"
       refY="0"
       orient="auto"
       style="overflow:visible"
       inkscape:isstock="true">
      <path
         id="path7007"
         transform="scale(0.8,0.8)"
         style="fill:#ff6769;fill-opacity:1;fill-rule:evenodd;stroke:#000000;stroke-width:0.1pt;stroke-opacity:1"
         d="M 0.022727273,-0.74009011 L 0.022727273,0.69740989 L -7.7585227,3.0099099 L 10.678977,3.0099099 L 3.4914773,0.69740989 L 3.4914773,-0.74009011 L 10.741477,-2.8963401 L -7.7272727,-2.8963401 L 0.022727273,-0.74009011 z " />
    </marker>
    <marker
       inkscape:isstock="true"
       orient="auto"
       refY="0"
       refX="0"
       id="marker6905"
       inkscape:stockid="InfiniteLineStart"
       style="overflow:visible">
      <g
         transform="translate(-13,0)"
         style="fill:#ff6769;stroke:#000000;stroke-opacity:1;fill-opacity:1"
         id="g6903">
        <circle
           style="stroke:#000000;stroke-opacity:1;fill:#ff6769;fill-opacity:1"
           cx="3"
           cy="0"
           r="0.8"
           id="circle6897" />
        <circle
           style="stroke:#000000;stroke-opacity:1;fill:#ff6769;fill-opacity:1"
           cx="6.5"
           cy="0"
           r="0.8"
           id="circle6899" />
        <circle
           style="stroke:#000000;stroke-opacity:1;fill:#ff6769;fill-opacity:1"
           cx="10"
           cy="0"
           r="0.8"
           id="circle6901" />
      </g>
    </marker>
    <marker
       inkscape:isstock="true"
       style="overflow:visible"
       id="marker6363"
       refX="0.0"
       refY="0.0"
       orient="auto"
       inkscape:stockid="Club">
      <path
         transform="scale(0.6)"
         style="fill-rule:evenodd;stroke:#000000;stroke-width:0.74587913pt;stroke-opacity:1;fill:#ff6769;fill-opacity:1"
         d="M -1.5971367,-7.0977635 C -3.4863874,-7.0977635 -5.0235187,-5.5606321 -5.0235187,-3.6713813 C -5.0235187,-3.0147015 -4.7851656,-2.4444556 -4.4641095,-1.9232271 C -4.5028609,-1.8911157 -4.5437814,-1.8647646 -4.5806531,-1.8299921 C -5.2030765,-2.6849849 -6.1700514,-3.2751330 -7.3077730,-3.2751330 C -9.1970245,-3.2751331 -10.734155,-1.7380016 -10.734155,0.15124914 C -10.734155,2.0404999 -9.1970245,3.5776313 -7.3077730,3.5776313 C -6.3143268,3.5776313 -5.4391540,3.1355702 -4.8137404,2.4588126 C -4.9384274,2.8137041 -5.0235187,3.1803000 -5.0235187,3.5776313 C -5.0235187,5.4668819 -3.4863874,7.0040135 -1.5971367,7.0040135 C 0.29211394,7.0040135 1.8292454,5.4668819 1.8292454,3.5776313 C 1.8292454,2.7842354 1.5136868,2.0838028 1.0600576,1.5031550 C 2.4152718,1.7663868 3.7718375,2.2973711 4.7661444,3.8340272 C 4.0279463,3.0958289 3.5540908,1.7534117 3.5540908,-0.058529361 L 2.9247554,-0.10514681 L 3.5074733,-0.12845553 C 3.5074733,-1.9403966 3.9580199,-3.2828138 4.6962183,-4.0210121 C 3.7371277,-2.5387813 2.4390549,-1.9946496 1.1299838,-1.7134486 C 1.5341802,-2.2753578 1.8292454,-2.9268556 1.8292454,-3.6713813 C 1.8292454,-5.5606319 0.29211394,-7.0977635 -1.5971367,-7.0977635 z "
         id="path6361" />
    </marker>
    <marker
       inkscape:isstock="true"
       style="overflow:visible"
       id="marker6161"
       refX="0.0"
       refY="0.0"
       orient="auto"
       inkscape:stockid="Legs">
      <g
         style="stroke:#000000;stroke-opacity:1;fill:#ff6769;fill-opacity:1"
         transform="scale(-0.7)"
         id="g6159">
        <g
           style="stroke:#000000;stroke-opacity:1;fill:#ff6769;fill-opacity:1"
           transform="matrix(0,-1.000000,-1.000000,0,20.70862,21.31391)"
           id="g6153">
          <path
             style="fill:#ff6769;fill-opacity:1;fill-rule:evenodd;stroke:#000000;stroke-width:1pt;stroke-opacity:1"
             d="M 21.221250,20.675360 C 14.311099,25.396517 18.766725,27.282204 15.380179,34.118595"
             id="path6149" />
          <path
             style="fill:#ff6769;fill-opacity:1;fill-rule:evenodd;stroke:#000000;stroke-width:1pt;stroke-opacity:1"
             d="M 21.398110,20.548120 C 20.037601,28.895644 24.934182,29.318060 25.903151,34.373078"
             id="path6151" />
        </g>
        <path
           style="fill:#ff6769;fill-rule:evenodd;stroke-width:1pt;stroke:#000000;stroke-opacity:1;fill-opacity:1"
           d="M -14.090070,-6.7318716 L -15.012238,-2.6884886 L -11.049487,-3.9115586 L -14.090070,-6.7318716 z "
           id="path6155" />
        <path
           style="fill:#ff6769;fill-rule:evenodd;stroke-width:1pt;stroke:#000000;stroke-opacity:1;fill-opacity:1"
           d="M -15.215679,4.5567534 L -13.341552,8.2563664 L -11.074678,4.7835114 L -15.215679,4.5567534 z "
           id="path6157" />
      </g>
    </marker>
    <marker
       inkscape:isstock="true"
       style="overflow:visible"
       id="marker5977"
       refX="0.0"
       refY="0.0"
       orient="auto"
       inkscape:stockid="Scissors">
      <path
         style="fill:#ff6769;stroke:#000000;stroke-opacity:1;fill-opacity:1"
         d="M 9.0898857,-3.6061018 C 8.1198849,-4.7769976 6.3697607,-4.7358294 5.0623558,-4.2327734 L -3.1500488,-1.1548705 C -5.5383421,-2.4615840 -7.8983361,-2.0874077 -7.8983361,-2.7236578 C -7.8983361,-3.2209742 -7.4416699,-3.1119800 -7.5100293,-4.4068519 C -7.5756648,-5.6501286 -8.8736064,-6.5699315 -10.100428,-6.4884954 C -11.327699,-6.4958500 -12.599867,-5.5553341 -12.610769,-4.2584343 C -12.702194,-2.9520479 -11.603560,-1.7387447 -10.304005,-1.6532027 C -8.7816644,-1.4265411 -6.0857470,-2.3487593 -4.8210600,-0.082342643 C -5.7633447,1.6559151 -7.4350844,1.6607341 -8.9465707,1.5737277 C -10.201445,1.5014928 -11.708664,1.8611256 -12.307219,3.0945882 C -12.885586,4.2766744 -12.318421,5.9591904 -10.990470,6.3210002 C -9.6502788,6.8128279 -7.8098011,6.1912892 -7.4910978,4.6502760 C -7.2454393,3.4624530 -8.0864637,2.9043186 -7.7636052,2.4731223 C -7.5199917,2.1477623 -5.9728246,2.3362771 -3.2164999,1.0982979 L 5.6763468,4.2330688 C 6.8000164,4.5467672 8.1730685,4.5362646 9.1684433,3.4313614 L -0.051640930,-0.053722219 L 9.0898857,-3.6061018 z M -9.2179159,-5.5066058 C -7.9233569,-4.7838060 -8.0290767,-2.8230356 -9.3743431,-2.4433169 C -10.590861,-2.0196559 -12.145370,-3.2022863 -11.757521,-4.5207817 C -11.530373,-5.6026336 -10.104134,-6.0014137 -9.2179159,-5.5066058 z M -9.1616516,2.5107591 C -7.8108215,3.0096239 -8.0402087,5.2951947 -9.4138723,5.6023681 C -10.324932,5.9187072 -11.627422,5.4635705 -11.719569,4.3902287 C -11.897178,3.0851737 -10.363484,1.9060805 -9.1616516,2.5107591 z "
         id="path5975" />
    </marker>
    <marker
       inkscape:isstock="true"
       style="overflow:visible"
       id="marker5843"
       refX="0.0"
       refY="0.0"
       orient="auto"
       inkscape:stockid="DiamondL">
      <path
         transform="scale(0.8)"
         style="fill-rule:evenodd;stroke:#000000;stroke-width:1pt;stroke-opacity:1;fill:#ff6769;fill-opacity:1"
         d="M 0,-7.0710768 L -7.0710894,0 L 0,7.0710589 L 7.0710462,0 L 0,-7.0710768 z "
         id="path5841" />
    </marker>
    <marker
       inkscape:isstock="true"
       style="overflow:visible"
       id="marker5651"
       refX="0.0"
       refY="0.0"
       orient="auto"
       inkscape:stockid="DotL">
      <path
         transform="scale(0.8) translate(7.4, 1)"
         style="fill-rule:evenodd;stroke:#000000;stroke-width:1pt;stroke-opacity:1;fill:#ff6769;fill-opacity:1"
         d="M -2.5,-1.0 C -2.5,1.7600000 -4.7400000,4.0 -7.5,4.0 C -10.260000,4.0 -12.5,1.7600000 -12.5,-1.0 C -12.5,-3.7600000 -10.260000,-6.0 -7.5,-6.0 C -4.7400000,-6.0 -2.5,-3.7600000 -2.5,-1.0 z "
         id="path5649" />
    </marker>
    <marker
       inkscape:stockid="DotL"
       orient="auto"
       refY="0.0"
       refX="0.0"
       id="DotL"
       style="overflow:visible"
       inkscape:isstock="true">
      <path
         id="path1484"
         d="M -2.5,-1.0 C -2.5,1.7600000 -4.7400000,4.0 -7.5,4.0 C -10.260000,4.0 -12.5,1.7600000 -12.5,-1.0 C -12.5,-3.7600000 -10.260000,-6.0 -7.5,-6.0 C -4.7400000,-6.0 -2.5,-3.7600000 -2.5,-1.0 z "
         style="fill-rule:evenodd;stroke:#000000;stroke-width:1pt;stroke-opacity:1;fill:#ff6769;fill-opacity:1"
         transform="scale(0.8) translate(7.4, 1)" />
    </marker>
    <marker
       inkscape:isstock="true"
       style="overflow:visible"
       id="marker4677"
       refX="0.0"
       refY="0.0"
       orient="auto"
       inkscape:stockid="EmptyTriangleOutL">
      <path
         transform="scale(0.8) translate(-6,0)"
         style="fill-rule:evenodd;fill:#ff6769;stroke:#000000;stroke-width:1pt;stroke-opacity:1;fill-opacity:1"
         d="M 5.77,0.0 L -2.88,5.0 L -2.88,-5.0 L 5.77,0.0 z "
         id="path4675" />
    </marker>
    <marker
       inkscape:isstock="true"
       style="overflow:visible"
       id="marker4553"
       refX="0.0"
       refY="0.0"
       orient="auto"
       inkscape:stockid="Tail">
      <g
         style="stroke:#000000;stroke-opacity:1;fill:#ff6769;fill-opacity:1"
         transform="scale(-1.2)"
         id="g4551">
        <path
           style="fill:#ff6769;fill-rule:evenodd;stroke:#000000;stroke-width:0.8;stroke-linecap:round;stroke-opacity:1;fill-opacity:1"
           d="M -3.8048674,-3.9585227 L 0.54352094,0"
           id="path4539" />
        <path
           style="fill:#ff6769;fill-rule:evenodd;stroke:#000000;stroke-width:0.8;stroke-linecap:round;stroke-opacity:1;fill-opacity:1"
           d="M -1.2866832,-3.9585227 L 3.0617053,0"
           id="path4541" />
        <path
           style="fill:#ff6769;fill-rule:evenodd;stroke:#000000;stroke-width:0.8;stroke-linecap:round;stroke-opacity:1;fill-opacity:1"
           d="M 1.3053582,-3.9585227 L 5.6537466,0"
           id="path4543" />
        <path
           style="fill:#ff6769;fill-rule:evenodd;stroke:#000000;stroke-width:0.8;stroke-linecap:round;stroke-opacity:1;fill-opacity:1"
           d="M -3.8048674,4.1775838 L 0.54352094,0.21974226"
           id="path4545" />
        <path
           style="fill:#ff6769;fill-rule:evenodd;stroke:#000000;stroke-width:0.8;stroke-linecap:round;stroke-opacity:1;fill-opacity:1"
           d="M -1.2866832,4.1775838 L 3.0617053,0.21974226"
           id="path4547" />
        <path
           style="fill:#ff6769;fill-rule:evenodd;stroke:#000000;stroke-width:0.8;stroke-linecap:round;stroke-opacity:1;fill-opacity:1"
           d="M 1.3053582,4.1775838 L 5.6537466,0.21974226"
           id="path4549" />
      </g>
    </marker>
    <marker
       inkscape:stockid="Arrow1Lstart"
       orient="auto"
       refY="0.0"
       refX="0.0"
       id="Arrow1Lstart"
       style="overflow:visible"
       inkscape:isstock="true">
      <path
         id="path1423"
         d="M 0.0,0.0 L 5.0,-5.0 L -12.5,0.0 L 5.0,5.0 L 0.0,0.0 z "
         style="fill-rule:evenodd;stroke:#000000;stroke-width:1pt;stroke-opacity:1;fill:#000005;fill-opacity:1"
         transform="scale(0.8) translate(12.5,0)" />
    </marker>
    <filter
       inkscape:collect="always"
       style="color-interpolation-filters:sRGB"
       id="filter7800"
       x="-0.11565899"
       width="1.231318"
       y="-0.07206472"
       height="1.1441294">
      <feGaussianBlur
         inkscape:collect="always"
         stdDeviation="2.4475518"
         id="feGaussianBlur7802" />
    </filter>
  </defs>
  <sodipodi:namedview
     id="base"
     pagecolor="#ffffff"
     bordercolor="#666666"
     borderopacity="1.0"
     inkscape:pageopacity="0.0"
     inkscape:pageshadow="2"
     inkscape:zoom="0.49497475"
     inkscape:cx="311.42132"
     inkscape:cy="426.00403"
     inkscape:document-units="mm"
     inkscape:current-layer="layer3"
     showgrid="false"
     inkscape:window-width="1280"
     inkscape:window-height="961"
     inkscape:window-x="1912"
     inkscape:window-y="-8"
     inkscape:window-maximized="1"
     inkscape:snap-global="true"
     inkscape:snap-others="true"
     inkscape:object-nodes="true"
     inkscape:snap-nodes="true"
     inkscape:snap-center="true"
     inkscape:snap-bbox="true"
     inkscape:object-paths="true"
     inkscape:snap-intersection-paths="true"
     inkscape:snap-smooth-nodes="true" />
  <metadata
     id="metadata873">
    <rdf:RDF>
      <cc:Work
         rdf:about="">
        <dc:format>image/svg+xml</dc:format>
        <dc:type
           rdf:resource="http://purl.org/dc/dcmitype/StillImage" />
        <dc:title></dc:title>
      </cc:Work>
    </rdf:RDF>
  </metadata>
  <g
     inkscape:groupmode="layer"
     id="layer4"
     inkscape:label="block">
    <g
       style=""
       id="g8279">
      <path
         transform="scale(0.26458333)"
         inkscape:connector-curvature="0"
         id="path7843"
         d="m 464.69213,483.8343 c -6.11143,-1.36189 -11.44221,-2.58302 -11.8462,-2.71363 -0.40399,-0.13062 6.98078,-14.55639 16.41059,-32.05729 9.42981,-17.50089 17.14709,-32.79395 17.1495,-33.98457 0.002,-1.19062 -0.71464,-2.44069 -1.59346,-2.77792 -0.87881,-0.33724 -18.60699,-0.61315 -39.39595,-0.61315 h -37.7981 l -0.0214,-17.93021 c -0.0118,-9.86161 -0.46091,-42.30744 -0.99807,-72.10184 l -0.97665,-54.17163 -28.75912,-53.40143 c -15.81751,-29.37078 -28.42665,-53.73388 -28.02031,-54.14022 1.23101,-1.23101 24.09717,-6.66046 38.06743,-9.03892 10.79031,-1.83706 17.18488,-2.24403 35.86042,-2.28229 25.9196,-0.0531 35.81696,1.26462 53.53808,7.12794 13.26775,4.38984 16.94933,6.54711 26.67717,15.63184 13.07099,12.20687 21.44454,26.01025 25.97709,42.82194 3.17026,11.75877 3.19141,34.16362 0.051,54.04316 -6.08102,38.49461 -23.77032,120.56605 -39.40798,182.83761 -10.16842,40.49217 -7.27026,36.68242 -24.91406,32.75061 z"
         style="opacity:1;fill:#f6a5ff;fill-opacity:1;fill-rule:nonzero;stroke:none;stroke-width:15.27159786;stroke-linecap:square;stroke-linejoin:round;stroke-miterlimit:4;stroke-dasharray:none;stroke-dashoffset:0;stroke-opacity:1;paint-order:fill markers stroke" />
      <path
         transform="scale(0.26458333)"
         inkscape:connector-curvature="0"
         id="path7847"
         d="m 252.56009,447.0275 c -47.03815,-6.12112 -89.36581,-8.64819 -117.85722,-7.03636 -15.97332,0.90365 -32.20451,2.94275 -36.47812,4.58268 -1.773834,0.68068 -2.191697,-0.37063 -3.635806,-9.1475 -1.948913,-11.8449 -2.260606,-20.34746 -1.147959,-31.31472 2.107699,-20.7754 6.870665,-36.58301 17.653295,-58.58885 11.84922,-24.1826 27.45018,-46.21153 49.30317,-69.61726 10.31976,-11.05301 32.03215,-31.25605 32.78359,-30.50461 0.22018,0.22017 -2.23937,5.42452 -5.46565,11.56523 -4.80266,9.14107 -5.66297,11.49578 -4.74608,12.99021 1.04056,1.696 3.63444,1.8441 36.61803,2.09075 l 35.49813,0.26546 0.0244,9.33099 c 0.0133,5.13205 0.89341,38.30002 1.95561,73.70661 l 1.9313,64.37561 4.74774,8.86045 c 2.61126,4.87324 6.29916,11.70149 8.19534,15.17389 1.89618,3.4724 3.08443,6.24921 2.64055,6.17068 -0.44388,-0.0785 -10.353,-1.38499 -22.02026,-2.90326 z"
         style="opacity:1;fill:#77e8ff;fill-opacity:1;fill-rule:nonzero;stroke:none;stroke-width:15.27159786;stroke-linecap:square;stroke-linejoin:round;stroke-miterlimit:4;stroke-dasharray:none;stroke-dashoffset:0;stroke-opacity:1;paint-order:fill markers stroke" />
    </g>
  </g>
  <g
     id="g3230"
     inkscape:groupmode="layer"
     inkscape:label="shadow"
     transform="translate(0,-97)">
    <g
       id="g3570"
       style="fill:#000005;fill-opacity:1;stroke:#000000;stroke-width:4;stroke-miterlimit:4;stroke-dasharray:none;stroke-opacity:1;filter:url(#filter7800)"
       transform="matrix(1.5477353,0,0,1.8259338,-35.116549,-149.38624)">
      <path
         style="fill:#000005;fill-opacity:1;fill-rule:nonzero;stroke:#000000;stroke-width:4;stroke-linecap:butt;stroke-linejoin:miter;stroke-miterlimit:4;stroke-dasharray:none;stroke-opacity:1"
         d="m 91.816666,195.10705 13.458004,0.048 -19.156741,30.11797 -18.546116,-29.7234 11.441023,-0.11711 -0.03531,-21.63893 12.455746,0.0856 z"
         id="path3226"
         inkscape:connector-curvature="0"
         sodipodi:nodetypes="cccccccc" />
      <path
         style="fill:#000005;fill-opacity:1;stroke:#000000;stroke-width:4;stroke-linecap:butt;stroke-linejoin:miter;stroke-miterlimit:4;stroke-dasharray:none;stroke-opacity:1"
         d="m 78.977526,173.79361 12.455746,0.0856 -19.156744,-30.11798 -17.790165,30.10138 12.348791,0.0341 0.736659,21.65296 11.441023,-0.11711 z"
         id="path3228"
         inkscape:connector-curvature="0"
         sodipodi:nodetypes="cccccccc" />
    </g>
  </g>
  <g
     inkscape:groupmode="layer"
     id="layer3"
     inkscape:label="bota">
    <path
       transform="translate(0,-96.999999)"
       style="fill:#ff6769;fill-opacity:1;fill-rule:nonzero;stroke:#000000;stroke-width:3;stroke-linecap:butt;stroke-linejoin:round;stroke-miterlimit:4;stroke-dasharray:none;stroke-dashoffset:0;stroke-opacity:1;paint-order:fill markers stroke"
       d="m 106.99139,206.86635 20.82943,0.0877 -29.649572,54.99342 -28.704477,-54.27297 17.707669,-0.21384 -0.05469,-39.51125 19.27821,0.1563 z"
       id="path1723"
       inkscape:connector-curvature="0"
       sodipodi:nodetypes="cccccccc" />
  </g>
  <g
     inkscape:label="Layer 1"
     inkscape:groupmode="layer"
     id="layer1"
     transform="translate(0,-97)">
    <path
       style="color:#000000;font-style:normal;font-variant:normal;font-weight:normal;font-stretch:normal;font-size:medium;line-height:normal;font-family:sans-serif;font-variant-ligatures:normal;font-variant-position:normal;font-variant-caps:normal;font-variant-numeric:normal;font-variant-alternates:normal;font-feature-settings:normal;text-indent:0;text-align:start;text-decoration:none;text-decoration-line:none;text-decoration-style:solid;text-decoration-color:#000000;letter-spacing:normal;word-spacing:normal;text-transform:none;writing-mode:lr-tb;direction:ltr;text-orientation:mixed;dominant-baseline:auto;baseline-shift:baseline;text-anchor:start;white-space:normal;shape-padding:0;clip-rule:nonzero;display:inline;overflow:visible;visibility:visible;opacity:1;isolation:auto;mix-blend-mode:normal;color-interpolation:sRGB;color-interpolation-filters:linearRGB;solid-color:#000000;solid-opacity:1;vector-effect:none;fill:#000000;fill-opacity:1;fill-rule:nonzero;stroke:none;stroke-width:3.24294615;stroke-linecap:square;stroke-linejoin:round;stroke-miterlimit:4;stroke-dasharray:none;stroke-dashoffset:0;stroke-opacity:1;paint-order:fill markers stroke;color-rendering:auto;image-rendering:auto;shape-rendering:auto;text-rendering:auto;enable-background:accumulate"
       d="m 131.5059,136.46756 c -2.48825,-1.74765 -5.27257,-3.23468 -8.28948,-4.51108 -12.06771,-5.10552 -27.901685,-6.80586 -43.711057,-6.87763 -31.618772,-0.14351 -55.713541,16.56969 -55.713541,16.56969 -102.4341,248.53345 175.116068,100.97671 174.894188,101.49771 0,0 -206.7202982,-55.867 -177.909982,-14.5321 6.926533,10.98252 17.484672,15.54342 29.120763,16.20351 11.64824,0.66075 24.468181,-2.48291 36.422596,-6.92475 23.908823,-8.8837 41.761503,-10.69359 41.761503,-10.69359 0.28176,-0.195 2.43083,-0.6725 2.5638,-1.02745 0,0 4.03399,-20.92203 7.23518,-32.01082 3.19524,-11.06823 6.33488,-24.39806 5.90201,-34.22547 -7.4e-4,-6.98197 -2.12643,-12.81778 -5.76906,-17.41225 -1.82495,-2.30181 -4.01858,-4.30809 -6.50683,-6.05569 z m -1.57089,3.07946 c 2.29875,1.6142 4.28052,3.43225 5.89021,5.46263 3.21941,4.06069 5.00522,8.92359 4.99835,15.07835 9.6e-4,0.0303 9.6e-4,0.0628 0.003,0.094 0.39646,8.72201 -10.61505,55.51514 -13.76615,66.43047 0,0 -24.50797,1.40005 -41.534519,7.88845 -11.752085,4.36666 -24.297436,7.39961 -35.39802,6.76988 C -24.4813,203.24916 82.422213,117.56747 129.93511,139.547 Z"
       id="path7591"
       inkscape:connector-curvature="0"
       sodipodi:nodetypes="ccccccsscccccccccccccccc" />
  </g>
  <g
     inkscape:groupmode="layer"
     id="layer2"
     inkscape:label="topa">
    <path
       style="fill:#44b992;fill-opacity:1;stroke:#000000;stroke-width:4;stroke-linecap:butt;stroke-linejoin:round;stroke-miterlimit:4;stroke-dasharray:none;stroke-dashoffset:0;stroke-opacity:1;paint-order:fill markers stroke"
       d="m 87.11975,70.949411 19.27821,0.156302 -29.649574,-54.993439 -27.534468,54.963131 19.11266,0.06224 1.140153,39.536875 17.707669,-0.21383 z"
       id="path1723-4"
       inkscape:connector-curvature="0"
       sodipodi:nodetypes="cccccccc" />
  </g>
</svg>
