<?xml version="1.0" encoding="UTF-8" standalone="no"?>
<!-- Created with Inkscape (http://www.inkscape.org/) -->

<svg
   xmlns:dc="http://purl.org/dc/elements/1.1/"
   xmlns:cc="http://creativecommons.org/ns#"
   xmlns:rdf="http://www.w3.org/1999/02/22-rdf-syntax-ns#"
   xmlns:svg="http://www.w3.org/2000/svg"
   xmlns="http://www.w3.org/2000/svg"
   xmlns:sodipodi="http://sodipodi.sourceforge.net/DTD/sodipodi-0.dtd"
   xmlns:inkscape="http://www.inkscape.org/namespaces/inkscape"
   width="200mm"
   height="100mm"
   viewBox="0 0 200 100"
   version="1.1"
   id="svg876"
   inkscape:version="0.92.4 (5da689c313, 2019-01-14)"
   sodipodi:docname="logo2.svg">
  <defs
     id="defs870">
    <marker
       inkscape:stockid="Club"
       orient="auto"
       refY="0"
       refX="0"
       id="marker7313"
       style="overflow:visible"
       inkscape:isstock="true">
      <path
         id="path7311"
         d="m -1.5971367,-7.0977635 c -1.8892507,0 -3.426382,1.5371314 -3.426382,3.4263822 0,0.6566798 0.2383531,1.2269257 0.5594092,1.7481542 -0.038751,0.032111 -0.079672,0.058463 -0.1165436,0.093235 -0.6224234,-0.8549928 -1.5893983,-1.4451409 -2.7271199,-1.4451409 -1.8892515,-1e-7 -3.426382,1.5371314 -3.426382,3.42638214 0,1.88925076 1.5371305,3.42638216 3.426382,3.42638216 0.9934462,0 1.868619,-0.4420611 2.4940326,-1.1188187 -0.124687,0.3548915 -0.2097783,0.7214874 -0.2097783,1.1188187 0,1.8892506 1.5371313,3.4263822 3.426382,3.4263822 1.88925064,0 3.4263821,-1.5371316 3.4263821,-3.4263822 0,-0.7933959 -0.3155586,-1.4938285 -0.7691878,-2.0744763 C 2.4152718,1.7663868 3.7718375,2.2973711 4.7661444,3.8340272 4.0279463,3.0958289 3.5540908,1.7534117 3.5540908,-0.05852936 l -0.6293354,-0.04661745 0.5827179,-0.0233087 c 0,-1.81194107 0.4505466,-3.15435827 1.188745,-3.89255657 -0.9590906,1.4822308 -2.2571634,2.0263625 -3.5662345,2.3075635 0.4041964,-0.5619092 0.6992616,-1.213407 0.6992616,-1.9579327 0,-1.8892506 -1.53713146,-3.4263822 -3.4263821,-3.4263822 z"
         style="fill:#ff6769;fill-opacity:1;fill-rule:evenodd;stroke:#000000;stroke-width:0.7458791pt;stroke-opacity:1"
         transform="scale(0.6)"
         inkscape:connector-curvature="0" />
    </marker>
    <marker
       inkscape:stockid="RazorWire"
       id="marker7009"
       refX="0"
       refY="0"
       orient="auto"
       style="overflow:visible"
       inkscape:isstock="true">
      <path
         id="path7007"
         transform="scale(0.8)"
         style="fill:#ff6769;fill-opacity:1;fill-rule:evenodd;stroke:#000000;stroke-width:0.10000001pt;stroke-opacity:1"
         d="m 0.02272727,-0.74009011 v 1.4375 L -7.7585227,3.0099099 H 10.678977 L 3.4914773,0.69740989 v -1.4375 L 10.741477,-2.8963401 H -7.7272727 Z"
         inkscape:connector-curvature="0" />
    </marker>
    <marker
       inkscape:isstock="true"
       orient="auto"
       refY="0"
       refX="0"
       id="marker6905"
       inkscape:stockid="InfiniteLineStart"
       style="overflow:visible">
      <g
         transform="translate(-13)"
         style="fill:#ff6769;fill-opacity:1;stroke:#000000;stroke-opacity:1"
         id="g6903">
        <circle
           style="fill:#ff6769;fill-opacity:1;stroke:#000000;stroke-opacity:1"
           cx="3"
           cy="0"
           r="0.80000001"
           id="circle6897" />
        <circle
           style="fill:#ff6769;fill-opacity:1;stroke:#000000;stroke-opacity:1"
           cx="6.5"
           cy="0"
           r="0.80000001"
           id="circle6899" />
        <circle
           style="fill:#ff6769;fill-opacity:1;stroke:#000000;stroke-opacity:1"
           cx="10"
           cy="0"
           r="0.80000001"
           id="circle6901" />
      </g>
    </marker>
    <marker
       inkscape:isstock="true"
       style="overflow:visible"
       id="marker6363"
       refX="0"
       refY="0"
       orient="auto"
       inkscape:stockid="Club">
      <path
         transform="scale(0.6)"
         style="fill:#ff6769;fill-opacity:1;fill-rule:evenodd;stroke:#000000;stroke-width:0.7458791pt;stroke-opacity:1"
         d="m -1.5971367,-7.0977635 c -1.8892507,0 -3.426382,1.5371314 -3.426382,3.4263822 0,0.6566798 0.2383531,1.2269257 0.5594092,1.7481542 -0.038751,0.032111 -0.079672,0.058463 -0.1165436,0.093235 -0.6224234,-0.8549928 -1.5893983,-1.4451409 -2.7271199,-1.4451409 -1.8892515,-1e-7 -3.426382,1.5371314 -3.426382,3.42638214 0,1.88925076 1.5371305,3.42638216 3.426382,3.42638216 0.9934462,0 1.868619,-0.4420611 2.4940326,-1.1188187 -0.124687,0.3548915 -0.2097783,0.7214874 -0.2097783,1.1188187 0,1.8892506 1.5371313,3.4263822 3.426382,3.4263822 1.88925064,0 3.4263821,-1.5371316 3.4263821,-3.4263822 0,-0.7933959 -0.3155586,-1.4938285 -0.7691878,-2.0744763 C 2.4152718,1.7663868 3.7718375,2.2973711 4.7661444,3.8340272 4.0279463,3.0958289 3.5540908,1.7534117 3.5540908,-0.05852936 l -0.6293354,-0.04661745 0.5827179,-0.0233087 c 0,-1.81194107 0.4505466,-3.15435827 1.188745,-3.89255657 -0.9590906,1.4822308 -2.2571634,2.0263625 -3.5662345,2.3075635 0.4041964,-0.5619092 0.6992616,-1.213407 0.6992616,-1.9579327 0,-1.8892506 -1.53713146,-3.4263822 -3.4263821,-3.4263822 z"
         id="path6361"
         inkscape:connector-curvature="0" />
    </marker>
    <marker
       inkscape:isstock="true"
       style="overflow:visible"
       id="marker6161"
       refX="0"
       refY="0"
       orient="auto"
       inkscape:stockid="Legs">
      <g
         style="fill:#ff6769;fill-opacity:1;stroke:#000000;stroke-opacity:1"
         transform="scale(-0.7)"
         id="g6159">
        <g
           style="fill:#ff6769;fill-opacity:1;stroke:#000000;stroke-opacity:1"
           transform="matrix(0,-1,-1,0,20.70862,21.31391)"
           id="g6153">
          <path
             style="fill:#ff6769;fill-opacity:1;fill-rule:evenodd;stroke:#000000;stroke-width:1.00000003pt;stroke-opacity:1"
             d="m 21.22125,20.67536 c -6.910151,4.721157 -2.454525,6.606844 -5.841071,13.443235"
             id="path6149"
             inkscape:connector-curvature="0" />
          <path
             style="fill:#ff6769;fill-opacity:1;fill-rule:evenodd;stroke:#000000;stroke-width:1.00000003pt;stroke-opacity:1"
             d="m 21.39811,20.54812 c -1.360509,8.347524 3.536072,8.76994 4.505041,13.824958"
             id="path6151"
             inkscape:connector-curvature="0" />
        </g>
        <path
           style="fill:#ff6769;fill-opacity:1;fill-rule:evenodd;stroke:#000000;stroke-width:1.00000003pt;stroke-opacity:1"
           d="m -14.09007,-6.7318716 -0.922168,4.043383 3.962751,-1.22307 z"
           id="path6155"
           inkscape:connector-curvature="0" />
        <path
           style="fill:#ff6769;fill-opacity:1;fill-rule:evenodd;stroke:#000000;stroke-width:1.00000003pt;stroke-opacity:1"
           d="m -15.215679,4.5567534 1.874127,3.699613 2.266874,-3.472855 z"
           id="path6157"
           inkscape:connector-curvature="0" />
      </g>
    </marker>
    <marker
       inkscape:isstock="true"
       style="overflow:visible"
       id="marker5977"
       refX="0"
       refY="0"
       orient="auto"
       inkscape:stockid="Scissors">
      <path
         style="fill:#ff6769;fill-opacity:1;stroke:#000000;stroke-opacity:1"
         d="M 9.0898857,-3.6061018 C 8.1198849,-4.7769976 6.3697607,-4.7358294 5.0623558,-4.2327734 l -8.2124046,3.0779029 c -2.3882933,-1.3067135 -4.7482873,-0.9325372 -4.7482873,-1.5687873 0,-0.4973164 0.4566662,-0.3883222 0.3883068,-1.6831941 -0.065635,-1.2432767 -1.3635771,-2.1630796 -2.5903987,-2.0816435 -1.227271,-0.00735 -2.499439,0.9331613 -2.510341,2.2300611 -0.09143,1.3063864 1.007209,2.5196896 2.306764,2.6052316 1.5223406,0.2266616 4.218258,-0.6955566 5.482945,1.57086006 -0.9422847,1.73825774 -2.6140244,1.74307674 -4.1255107,1.65607034 -1.2548743,-0.072235 -2.7620933,0.2873979 -3.3606483,1.5208605 -0.578367,1.1820862 -0.0112,2.8646022 1.316749,3.226412 1.3401912,0.4918277 3.1806689,-0.129711 3.4993722,-1.6707242 0.2456585,-1.187823 -0.5953659,-1.7459574 -0.2725074,-2.1771537 0.2436135,-0.32536 1.7907806,-0.1368452 4.5471053,-1.3748244 L 5.6763468,4.2330688 C 6.8000164,4.5467672 8.1730685,4.5362646 9.1684433,3.4313614 l -9.22008423,-3.48508362 z m -18.3078016,-1.900504 c 1.294559,0.7227998 1.1888392,2.6835702 -0.1564272,3.0632889 -1.2165179,0.423661 -2.7710269,-0.7589694 -2.3831779,-2.0774648 0.227148,-1.0818519 1.653387,-1.480632 2.5396051,-0.9858241 z m 0.056264,8.0173649 c 1.3508301,0.4988648 1.1214429,2.7844356 -0.2522207,3.091609 -0.9110597,0.3163391 -2.2135497,-0.1387976 -2.3056967,-1.2121394 -0.177609,-1.305055 1.356085,-2.4841482 2.5579174,-1.8794696 z"
         id="path5975"
         inkscape:connector-curvature="0" />
    </marker>
    <marker
       inkscape:isstock="true"
       style="overflow:visible"
       id="marker5843"
       refX="0"
       refY="0"
       orient="auto"
       inkscape:stockid="DiamondL">
      <path
         transform="scale(0.8)"
         style="fill:#ff6769;fill-opacity:1;fill-rule:evenodd;stroke:#000000;stroke-width:1.00000003pt;stroke-opacity:1"
         d="M 0,-7.0710768 -7.0710894,0 0,7.0710589 7.0710462,0 Z"
         id="path5841"
         inkscape:connector-curvature="0" />
    </marker>
    <marker
       inkscape:isstock="true"
       style="overflow:visible"
       id="marker5651"
       refX="0"
       refY="0"
       orient="auto"
       inkscape:stockid="DotL">
      <path
         transform="matrix(0.8,0,0,0.8,5.92,0.8)"
         style="fill:#ff6769;fill-opacity:1;fill-rule:evenodd;stroke:#000000;stroke-width:1.00000003pt;stroke-opacity:1"
         d="m -2.5,-1 c 0,2.76 -2.24,5 -5,5 -2.76,0 -5,-2.24 -5,-5 0,-2.76 2.24,-5 5,-5 2.76,0 5,2.24 5,5 z"
         id="path5649"
         inkscape:connector-curvature="0" />
    </marker>
    <marker
       inkscape:stockid="DotL"
       orient="auto"
       refY="0"
       refX="0"
       id="DotL"
       style="overflow:visible"
       inkscape:isstock="true">
      <path
         id="path1484"
         d="m -2.5,-1 c 0,2.76 -2.24,5 -5,5 -2.76,0 -5,-2.24 -5,-5 0,-2.76 2.24,-5 5,-5 2.76,0 5,2.24 5,5 z"
         style="fill:#ff6769;fill-opacity:1;fill-rule:evenodd;stroke:#000000;stroke-width:1.00000003pt;stroke-opacity:1"
         transform="matrix(0.8,0,0,0.8,5.92,0.8)"
         inkscape:connector-curvature="0" />
    </marker>
    <marker
       inkscape:isstock="true"
       style="overflow:visible"
       id="marker4677"
       refX="0"
       refY="0"
       orient="auto"
       inkscape:stockid="EmptyTriangleOutL">
      <path
         transform="matrix(0.8,0,0,0.8,-4.8,0)"
         style="fill:#ff6769;fill-opacity:1;fill-rule:evenodd;stroke:#000000;stroke-width:1.00000003pt;stroke-opacity:1"
         d="M 5.77,0 -2.88,5 V -5 Z"
         id="path4675"
         inkscape:connector-curvature="0" />
    </marker>
    <marker
       inkscape:isstock="true"
       style="overflow:visible"
       id="marker4553"
       refX="0"
       refY="0"
       orient="auto"
       inkscape:stockid="Tail">
      <g
         style="fill:#ff6769;fill-opacity:1;stroke:#000000;stroke-opacity:1"
         transform="scale(-1.2)"
         id="g4551">
        <path
           style="fill:#ff6769;fill-opacity:1;fill-rule:evenodd;stroke:#000000;stroke-width:0.80000001;stroke-linecap:round;stroke-opacity:1"
           d="M -3.8048674,-3.9585227 0.54352094,0"
           id="path4539"
           inkscape:connector-curvature="0" />
        <path
           style="fill:#ff6769;fill-opacity:1;fill-rule:evenodd;stroke:#000000;stroke-width:0.80000001;stroke-linecap:round;stroke-opacity:1"
           d="M -1.2866832,-3.9585227 3.0617053,0"
           id="path4541"
           inkscape:connector-curvature="0" />
        <path
           style="fill:#ff6769;fill-opacity:1;fill-rule:evenodd;stroke:#000000;stroke-width:0.80000001;stroke-linecap:round;stroke-opacity:1"
           d="M 1.3053582,-3.9585227 5.6537466,0"
           id="path4543"
           inkscape:connector-curvature="0" />
        <path
           style="fill:#ff6769;fill-opacity:1;fill-rule:evenodd;stroke:#000000;stroke-width:0.80000001;stroke-linecap:round;stroke-opacity:1"
           d="M -3.8048674,4.1775838 0.54352094,0.21974226"
           id="path4545"
           inkscape:connector-curvature="0" />
        <path
           style="fill:#ff6769;fill-opacity:1;fill-rule:evenodd;stroke:#000000;stroke-width:0.80000001;stroke-linecap:round;stroke-opacity:1"
           d="M -1.2866832,4.1775838 3.0617053,0.21974226"
           id="path4547"
           inkscape:connector-curvature="0" />
        <path
           style="fill:#ff6769;fill-opacity:1;fill-rule:evenodd;stroke:#000000;stroke-width:0.80000001;stroke-linecap:round;stroke-opacity:1"
           d="M 1.3053582,4.1775838 5.6537466,0.21974226"
           id="path4549"
           inkscape:connector-curvature="0" />
      </g>
    </marker>
    <marker
       inkscape:stockid="Arrow1Lstart"
       orient="auto"
       refY="0"
       refX="0"
       id="Arrow1Lstart"
       style="overflow:visible"
       inkscape:isstock="true">
      <path
         id="path1423"
         d="M 0,0 5,-5 -12.5,0 5,5 Z"
         style="fill:#000005;fill-opacity:1;fill-rule:evenodd;stroke:#000000;stroke-width:1.00000003pt;stroke-opacity:1"
         transform="matrix(0.8,0,0,0.8,10,0)"
         inkscape:connector-curvature="0" />
    </marker>
    <filter
       inkscape:collect="always"
       style="color-interpolation-filters:sRGB"
       id="filter7800"
       x="-0.11565899"
       width="1.231318"
       y="-0.07206472"
       height="1.1441294">
      <feGaussianBlur
         inkscape:collect="always"
         stdDeviation="2.4475518"
         id="feGaussianBlur7802" />
    </filter>
  </defs>
  <sodipodi:namedview
     id="base"
     pagecolor="#ffffff"
     bordercolor="#666666"
     borderopacity="1.0"
     inkscape:pageopacity="0.0"
     inkscape:pageshadow="2"
     inkscape:zoom="0.49497475"
     inkscape:cx="311.42132"
     inkscape:cy="426.00403"
     inkscape:document-units="mm"
     inkscape:current-layer="layer2"
     showgrid="false"
     inkscape:window-width="1280"
     inkscape:window-height="961"
     inkscape:window-x="1912"
     inkscape:window-y="-8"
     inkscape:window-maximized="1"
     inkscape:snap-global="true"
     inkscape:snap-others="true"
     inkscape:object-nodes="true"
     inkscape:snap-nodes="true"
     inkscape:snap-center="true"
     inkscape:snap-bbox="true"
     inkscape:object-paths="true"
     inkscape:snap-intersection-paths="true"
     inkscape:snap-smooth-nodes="true" />
  <metadata
     id="metadata873">
    <rdf:RDF>
      <cc:Work
         rdf:about="">
        <dc:format>image/svg+xml</dc:format>
        <dc:type
           rdf:resource="http://purl.org/dc/dcmitype/StillImage" />
        <dc:title></dc:title>
      </cc:Work>
    </rdf:RDF>
  </metadata>
  <g
     inkscape:groupmode="layer"
     id="layer4"
     inkscape:label="block"
     transform="translate(0,-100)" />
  <g
     id="g3230"
     inkscape:groupmode="layer"
     inkscape:label="shadow"
     transform="translate(0,-197)" />
  <g
     inkscape:groupmode="layer"
     id="layer3"
     inkscape:label="bota"
     transform="translate(0,-100)" />
  <g
     inkscape:groupmode="layer"
     id="layer2"
     inkscape:label="topa"
     transform="translate(0,-100)">
    <g
       id="g888"
       transform="matrix(0,-0.85258425,1.059642,0,4.5485218,220.26217)">
      <g
         id="g8279">
        <path
           style="opacity:1;fill:#f6a5ff;fill-opacity:1;fill-rule:nonzero;stroke:none;stroke-width:15.27159786;stroke-linecap:square;stroke-linejoin:round;stroke-miterlimit:4;stroke-dasharray:none;stroke-dashoffset:0;stroke-opacity:1;paint-order:fill markers stroke"
           d="m 464.69213,483.8343 c -6.11143,-1.36189 -11.44221,-2.58302 -11.8462,-2.71363 -0.40399,-0.13062 6.98078,-14.55639 16.41059,-32.05729 9.42981,-17.50089 17.14709,-32.79395 17.1495,-33.98457 0.002,-1.19062 -0.71464,-2.44069 -1.59346,-2.77792 -0.87881,-0.33724 -18.60699,-0.61315 -39.39595,-0.61315 h -37.7981 l -0.0214,-17.93021 c -0.0118,-9.86161 -0.46091,-42.30744 -0.99807,-72.10184 l -0.97665,-54.17163 -28.75912,-53.40143 c -15.81751,-29.37078 -28.42665,-53.73388 -28.02031,-54.14022 1.23101,-1.23101 24.09717,-6.66046 38.06743,-9.03892 10.79031,-1.83706 17.18488,-2.24403 35.86042,-2.28229 25.9196,-0.0531 35.81696,1.26462 53.53808,7.12794 13.26775,4.38984 16.94933,6.54711 26.67717,15.63184 13.07099,12.20687 21.44454,26.01025 25.97709,42.82194 3.17026,11.75877 3.19141,34.16362 0.051,54.04316 -6.08102,38.49461 -23.77032,120.56605 -39.40798,182.83761 -10.16842,40.49217 -7.27026,36.68242 -24.91406,32.75061 z"
           id="path7843"
           inkscape:connector-curvature="0"
           transform="scale(0.26458333)" />
        <path
           style="opacity:1;fill:#77e8ff;fill-opacity:1;fill-rule:nonzero;stroke:none;stroke-width:15.27159786;stroke-linecap:square;stroke-linejoin:round;stroke-miterlimit:4;stroke-dasharray:none;stroke-dashoffset:0;stroke-opacity:1;paint-order:fill markers stroke"
           d="m 252.56009,447.0275 c -47.03815,-6.12112 -89.36581,-8.64819 -117.85722,-7.03636 -15.97332,0.90365 -32.20451,2.94275 -36.47812,4.58268 -1.773834,0.68068 -2.191697,-0.37063 -3.635806,-9.1475 -1.948913,-11.8449 -2.260606,-20.34746 -1.147959,-31.31472 2.107699,-20.7754 6.870665,-36.58301 17.653295,-58.58885 11.84922,-24.1826 27.45018,-46.21153 49.30317,-69.61726 10.31976,-11.05301 32.03215,-31.25605 32.78359,-30.50461 0.22018,0.22017 -2.23937,5.42452 -5.46565,11.56523 -4.80266,9.14107 -5.66297,11.49578 -4.74608,12.99021 1.04056,1.696 3.63444,1.8441 36.61803,2.09075 l 35.49813,0.26546 0.0244,9.33099 c 0.0133,5.13205 0.89341,38.30002 1.95561,73.70661 l 1.9313,64.37561 4.74774,8.86045 c 2.61126,4.87324 6.29916,11.70149 8.19534,15.17389 1.89618,3.4724 3.08443,6.24921 2.64055,6.17068 -0.44388,-0.0785 -10.353,-1.38499 -22.02026,-2.90326 z"
           id="path7847"
           inkscape:connector-curvature="0"
           transform="scale(0.26458333)" />
      </g>
      <g
         transform="matrix(1.5477353,0,0,1.8259338,-35.11655,-246.38624)"
         style="fill:#000005;fill-opacity:1;stroke:#000000;stroke-width:4;stroke-miterlimit:4;stroke-dasharray:none;stroke-opacity:1;filter:url(#filter7800)"
         id="g3570">
        <path
           sodipodi:nodetypes="cccccccc"
           inkscape:connector-curvature="0"
           id="path3226"
           d="m 91.816666,195.10705 13.458004,0.048 -19.156741,30.11797 -18.546116,-29.7234 11.441023,-0.11711 -0.03531,-21.63893 12.455746,0.0856 z"
           style="fill:#000005;fill-opacity:1;fill-rule:nonzero;stroke:#000000;stroke-width:4;stroke-linecap:butt;stroke-linejoin:miter;stroke-miterlimit:4;stroke-dasharray:none;stroke-opacity:1" />
        <path
           sodipodi:nodetypes="cccccccc"
           inkscape:connector-curvature="0"
           id="path3228"
           d="m 78.977526,173.79361 12.455746,0.0856 -19.156744,-30.11798 -17.790165,30.10138 12.348791,0.0341 0.736659,21.65296 11.441023,-0.11711 z"
           style="fill:#000005;fill-opacity:1;stroke:#000000;stroke-width:4;stroke-linecap:butt;stroke-linejoin:miter;stroke-miterlimit:4;stroke-dasharray:none;stroke-opacity:1" />
      </g>
      <path
         sodipodi:nodetypes="cccccccc"
         inkscape:connector-curvature="0"
         id="path1723"
         d="m 106.99139,109.86635 20.82943,0.0877 -29.64957,54.99343 -28.704479,-54.27298 17.707669,-0.21384 -0.0547,-39.511249 19.27821,0.1563 z"
         style="fill:#ff6769;fill-opacity:1;fill-rule:nonzero;stroke:#000000;stroke-width:3;stroke-linecap:butt;stroke-linejoin:round;stroke-miterlimit:4;stroke-dasharray:none;stroke-dashoffset:0;stroke-opacity:1;paint-order:fill markers stroke" />
      <path
         sodipodi:nodetypes="cccccccc"
         inkscape:connector-curvature="0"
         id="path1723-4"
         d="m 87.11975,70.949412 19.27821,0.156302 -29.649574,-54.993439 -27.534469,54.963131 19.112661,0.06224 1.140153,39.536874 17.707669,-0.21383 z"
         style="fill:#44b992;fill-opacity:1;stroke:#000000;stroke-width:4;stroke-linecap:butt;stroke-linejoin:round;stroke-miterlimit:4;stroke-dasharray:none;stroke-dashoffset:0;stroke-opacity:1;paint-order:fill markers stroke" />
    </g>
  </g>
</svg>
